<svg width="1040" height="538" viewBox="0 0 1040 538" fill="none" xmlns="http://www.w3.org/2000/svg">
<path d="M389.398 389.398C396.938 396.938 396.994 409.251 388.728 415.987C364.754 435.524 336.29 448.978 305.768 455.05C268.911 462.381 230.709 458.618 195.991 444.238C161.273 429.857 131.599 405.504 110.721 374.259C89.8439 343.014 78.7006 306.279 78.7006 268.701C78.7006 231.122 89.8439 194.388 110.721 163.142C131.599 131.897 161.273 107.544 195.991 93.1635C230.709 78.7828 268.911 75.0202 305.768 82.3514C336.29 88.4227 364.754 101.877 388.728 121.414C396.994 128.15 396.938 140.463 389.398 148.003V148.003C381.858 155.543 369.699 155.429 361.261 148.909C342.819 134.66 321.262 124.805 298.234 120.225C268.868 114.383 238.43 117.381 210.768 128.839C183.106 140.297 159.463 159.701 142.829 184.596C126.194 209.491 117.316 238.759 117.316 268.701C117.316 298.642 126.194 327.91 142.829 352.805C159.463 377.701 183.106 397.104 210.768 408.562C238.43 420.02 268.868 423.018 298.234 417.177C321.262 412.596 342.819 402.742 361.261 388.492C369.699 381.972 381.858 381.858 389.398 389.398V389.398Z" fill="black"/>
<path d="M310.015 195.568C310.015 184.799 318.745 176.068 329.515 176.068C340.284 176.068 349.015 184.799 349.015 195.568V342.568C349.015 353.338 340.284 362.068 329.515 362.068C318.745 362.068 310.015 353.338 310.015 342.568V195.568Z" fill="black"/>
<path d="M184.015 195.568C184.015 184.799 192.745 176.068 203.515 176.068C214.284 176.068 223.015 184.799 223.015 195.568V342.568C223.015 353.338 214.284 362.068 203.515 362.068C192.745 362.068 184.015 353.338 184.015 342.568V195.568Z" fill="black"/>
<path d="M188.695 208.193C181.702 200.003 182.672 187.694 190.862 180.701C199.052 173.707 211.36 174.677 218.354 182.867L344.338 330.404C351.331 338.594 350.361 350.902 342.171 357.896C333.981 364.889 321.673 363.919 314.679 355.729L188.695 208.193Z" fill="#6338E4"/>
<path d="M471.907 279.292C471.907 282.033 471.736 284.889 471.393 287.858H405.115C405.571 293.797 407.455 298.365 410.766 301.563C414.192 304.646 418.359 306.188 423.268 306.188C430.576 306.188 435.656 303.104 438.511 296.937H469.681C468.082 303.219 465.171 308.872 460.946 313.897C456.836 318.922 451.641 322.862 445.361 325.717C439.082 328.572 432.06 330 424.296 330C414.934 330 406.599 328.001 399.292 324.004C391.985 320.007 386.276 314.297 382.165 306.873C378.055 299.45 376 290.77 376 280.834C376 270.898 377.998 262.219 381.994 254.795C386.104 247.372 391.813 241.662 399.12 237.664C406.428 233.667 414.82 231.669 424.296 231.669C433.544 231.669 441.765 233.61 448.958 237.493C456.151 241.376 461.746 246.915 465.742 254.11C469.852 261.305 471.907 269.699 471.907 279.292ZM441.936 271.584C441.936 266.558 440.223 262.561 436.798 259.592C433.373 256.623 429.091 255.138 423.954 255.138C419.044 255.138 414.877 256.565 411.451 259.421C408.14 262.276 406.085 266.33 405.286 271.584H441.936Z" fill="black"/>
<path d="M624.538 233.039L598.678 328.63H566.309L551.238 266.616L535.653 328.63H503.456L477.424 233.039H506.71L520.239 301.391L536.338 233.039H567.337L583.606 301.049L596.965 233.039H624.538Z" fill="black"/>
<path d="M630.74 268.329C630.74 256.451 633.309 245.887 638.447 236.636C643.585 227.272 650.72 220.019 659.854 214.88C669.103 209.627 679.55 207 691.196 207C705.467 207 717.684 210.769 727.846 218.306C738.007 225.844 744.801 236.123 748.226 249.142H716.029C713.631 244.117 710.206 240.291 705.753 237.664C701.414 235.038 696.448 233.724 690.853 233.724C681.833 233.724 674.526 236.865 668.931 243.146C663.337 249.428 660.54 257.822 660.54 268.329C660.54 278.836 663.337 287.23 668.931 293.511C674.526 299.792 681.833 302.933 690.853 302.933C696.448 302.933 701.414 301.62 705.753 298.993C710.206 296.366 713.631 292.54 716.029 287.515H748.226C744.801 300.535 738.007 310.813 727.846 318.351C717.684 325.774 705.467 329.486 691.196 329.486C679.55 329.486 669.103 326.916 659.854 321.777C650.72 316.524 643.585 309.272 638.447 300.021C633.309 290.77 630.74 280.206 630.74 268.329Z" fill="black"/>
<path d="M795.446 248.971C798.872 243.717 803.153 239.606 808.291 236.636C813.429 233.553 819.138 232.011 825.417 232.011V263.018H817.368C810.061 263.018 804.58 264.617 800.927 267.815C797.273 270.898 795.446 276.38 795.446 284.26V328.63H766.16V233.039H795.446V248.971Z" fill="black"/>
<path d="M929.5 279.292C929.5 282.033 929.328 284.889 928.986 287.858H862.707C863.164 293.797 865.048 298.365 868.359 301.563C871.784 304.646 875.951 306.188 880.861 306.188C888.168 306.188 893.249 303.104 896.103 296.937H927.273C925.675 303.219 922.763 308.872 918.539 313.897C914.428 318.922 909.233 322.862 902.954 325.717C896.674 328.572 889.652 330 881.888 330C872.526 330 864.191 328.001 856.884 324.004C849.577 320.007 843.868 314.297 839.758 306.873C835.648 299.45 833.592 290.77 833.592 280.834C833.592 270.898 835.59 262.219 839.587 254.795C843.697 247.372 849.406 241.662 856.713 237.664C864.02 233.667 872.412 231.669 881.888 231.669C891.137 231.669 899.357 233.61 906.55 237.493C913.743 241.376 919.338 246.915 923.334 254.11C927.444 261.305 929.5 269.699 929.5 279.292ZM899.529 271.584C899.529 266.558 897.816 262.561 894.391 259.592C890.965 256.623 886.684 255.138 881.546 255.138C876.636 255.138 872.469 256.565 869.044 259.421C865.733 262.276 863.678 266.33 862.878 271.584H899.529Z" fill="black"/>
<path d="M939.126 280.663C939.126 270.841 940.953 262.219 944.607 254.795C948.375 247.372 953.455 241.662 959.849 237.664C966.243 233.667 973.379 231.669 981.257 231.669C987.993 231.669 993.873 233.039 998.897 235.78C1004.03 238.521 1007.97 242.118 1010.71 246.572V233.039H1040V328.63H1010.71V315.096C1007.86 319.55 1003.86 323.148 998.726 325.889C993.702 328.63 987.822 330 981.086 330C973.322 330 966.243 328.001 959.849 324.004C953.455 319.893 948.375 314.125 944.607 306.702C940.953 299.164 939.126 290.485 939.126 280.663ZM1010.71 280.834C1010.71 273.525 1008.66 267.758 1004.55 263.532C1000.55 259.306 995.643 257.194 989.82 257.194C983.997 257.194 979.031 259.306 974.92 263.532C970.924 267.643 968.926 273.354 968.926 280.663C968.926 287.972 970.924 293.797 974.92 298.136C979.031 302.362 983.997 304.475 989.82 304.475C995.643 304.475 1000.55 302.362 1004.55 298.136C1008.66 293.911 1010.71 288.143 1010.71 280.834Z" fill="black"/>
</svg>
