<svg width="538" height="538" viewBox="0 0 538 538" fill="none" xmlns="http://www.w3.org/2000/svg">
<path d="M389.398 389.398C396.938 396.938 396.994 409.251 388.728 415.987C364.754 435.524 336.29 448.978 305.768 455.05C268.911 462.381 230.709 458.618 195.991 444.238C161.273 429.857 131.599 405.504 110.721 374.259C89.8439 343.014 78.7006 306.279 78.7006 268.701C78.7006 231.122 89.8439 194.388 110.721 163.142C131.599 131.897 161.273 107.544 195.991 93.1635C230.709 78.7828 268.911 75.0202 305.768 82.3514C336.29 88.4227 364.754 101.877 388.728 121.414C396.994 128.15 396.938 140.463 389.398 148.003C381.858 155.543 369.699 155.429 361.261 148.909C342.819 134.66 321.262 124.805 298.234 120.225C268.868 114.383 238.43 117.381 210.768 128.839C183.106 140.297 159.463 159.701 142.829 184.596C126.194 209.491 117.316 238.759 117.316 268.701C117.316 298.642 126.194 327.91 142.829 352.805C159.463 377.701 183.106 397.104 210.768 408.562C238.43 420.02 268.868 423.018 298.234 417.177C321.262 412.596 342.819 402.742 361.261 388.492C369.699 381.972 381.858 381.858 389.398 389.398Z" fill="black"/>
<path d="M310.014 195.568C310.014 184.799 318.745 176.068 329.514 176.068C340.284 176.068 349.014 184.799 349.014 195.568V342.568C349.014 353.338 340.284 362.068 329.514 362.068C318.745 362.068 310.014 353.338 310.014 342.568V195.568Z" fill="black"/>
<path d="M184.015 195.568C184.015 184.799 192.745 176.068 203.515 176.068C214.284 176.068 223.015 184.799 223.015 195.568V342.568C223.015 353.338 214.284 362.068 203.515 362.068C192.745 362.068 184.015 353.338 184.015 342.568V195.568Z" fill="black"/>
<path d="M188.695 208.193C181.702 200.003 182.672 187.694 190.862 180.701C199.052 173.707 211.36 174.677 218.354 182.867L344.337 330.404C351.331 338.594 350.361 350.902 342.171 357.896C333.981 364.889 321.673 363.919 314.679 355.729L188.695 208.193Z" fill="#6338E4"/>
</svg>
